# xmcd
#
# Track frame offsets: 
#        182
#        14147
#        30442
#        42697
#        54230
#        70100
#        82312
#        97790
#        108472
#        123467
#        138432
#        151197
#        164932
#
# Disc length: 2330 seconds
#
# Revision: 2
# Processed by: cddbd v1.5.2PL0 Copyright (c) Steve Scherf et al.
# Submitted via: ExactAudioCopy v1.0b4
#
DISCID=b309180d
DTITLE=America - Hearts
DYEAR=1975
DGENRE=Pop
TTITLE0=Daisy Jane
TTITLE1=Half A Man
TTITLE2=Midnight
TTITLE3=Bell Tree
TTITLE4=Old Virginia
TTITLE5=People In The Valley
TTITLE6=Company
TTITLE7=Woman Tonight
TTITLE8=The Story Of A Teenager
TTITLE9=Sister Golden Hair
TTITLE10=Tomorow
TTITLE11=Seasons
TTITLE12=Simple Life
EXTD=version japonesa
EXTT0=
EXTT1=
EXTT2=
EXTT3=
EXTT4=
EXTT5=
EXTT6=
EXTT7=
EXTT8=
EXTT9=
EXTT10=
EXTT11=
EXTT12=
PLAYORDER=
